solid antiskating_arm_v2
  facet normal 0.000000 0.000000 1.000000
    outer loop
      vertex -60.000000 -3.000000 0.000000
      vertex 60.000000 -3.000000 0.000000
      vertex 60.000000 3.000000 0.000000
    endloop
  endfacet
  facet normal 0.000000 0.000000 1.000000
    outer loop
      vertex -60.000000 -3.000000 0.000000
      vertex 60.000000 3.000000 0.000000
      vertex -60.000000 3.000000 0.000000
    endloop
  endfacet
  facet normal 0.000000 0.000000 -1.000000
    outer loop
      vertex -60.000000 -3.000000 4.000000
      vertex -60.000000 3.000000 4.000000
      vertex 60.000000 3.000000 4.000000
    endloop
  endfacet
  facet normal 0.000000 0.000000 -1.000000
    outer loop
      vertex -60.000000 -3.000000 4.000000
      vertex 60.000000 3.000000 4.000000
      vertex 60.000000 -3.000000 4.000000
    endloop
  endfacet
  facet normal 0.000000 1.000000 0.000000
    outer loop
      vertex -60.000000 -3.000000 0.000000
      vertex -60.000000 -3.000000 4.000000
      vertex 60.000000 -3.000000 4.000000
    endloop
  endfacet
  facet normal 0.000000 1.000000 0.000000
    outer loop
      vertex -60.000000 -3.000000 0.000000
      vertex 60.000000 -3.000000 4.000000
      vertex 60.000000 -3.000000 0.000000
    endloop
  endfacet
  facet normal -1.000000 0.000000 0.000000
    outer loop
      vertex 60.000000 -3.000000 0.000000
      vertex 60.000000 -3.000000 4.000000
      vertex 60.000000 3.000000 4.000000
    endloop
  endfacet
  facet normal -1.000000 0.000000 0.000000
    outer loop
      vertex 60.000000 -3.000000 0.000000
      vertex 60.000000 3.000000 4.000000
      vertex 60.000000 3.000000 0.000000
    endloop
  endfacet
  facet normal 0.000000 -1.000000 0.000000
    outer loop
      vertex 60.000000 3.000000 0.000000
      vertex 60.000000 3.000000 4.000000
      vertex -60.000000 3.000000 4.000000
    endloop
  endfacet
  facet normal 0.000000 -1.000000 0.000000
    outer loop
      vertex 60.000000 3.000000 0.000000
      vertex -60.000000 3.000000 4.000000
      vertex -60.000000 3.000000 0.000000
    endloop
  endfacet
  facet normal 1.000000 0.000000 -0.000000
    outer loop
      vertex -60.000000 3.000000 0.000000
      vertex -60.000000 3.000000 4.000000
      vertex -60.000000 -3.000000 4.000000
    endloop
  endfacet
  facet normal 1.000000 0.000000 0.000000
    outer loop
      vertex -60.000000 3.000000 0.000000
      vertex -60.000000 -3.000000 4.000000
      vertex -60.000000 -3.000000 0.000000
    endloop
  endfacet
  facet normal 0.000000 0.000000 1.000000
    outer loop
      vertex 58.000000 -3.000000 4.000000
      vertex 62.000000 -3.000000 4.000000
      vertex 62.000000 3.000000 4.000000
    endloop
  endfacet
  facet normal 0.000000 0.000000 1.000000
    outer loop
      vertex 58.000000 -3.000000 4.000000
      vertex 62.000000 3.000000 4.000000
      vertex 58.000000 3.000000 4.000000
    endloop
  endfacet
  facet normal 0.000000 0.000000 -1.000000
    outer loop
      vertex 58.000000 -3.000000 10.000000
      vertex 58.000000 3.000000 10.000000
      vertex 62.000000 3.000000 10.000000
    endloop
  endfacet
  facet normal 0.000000 0.000000 -1.000000
    outer loop
      vertex 58.000000 -3.000000 10.000000
      vertex 62.000000 3.000000 10.000000
      vertex 62.000000 -3.000000 10.000000
    endloop
  endfacet
  facet normal 0.000000 1.000000 0.000000
    outer loop
      vertex 58.000000 -3.000000 4.000000
      vertex 58.000000 -3.000000 10.000000
      vertex 62.000000 -3.000000 10.000000
    endloop
  endfacet
  facet normal 0.000000 1.000000 0.000000
    outer loop
      vertex 58.000000 -3.000000 4.000000
      vertex 62.000000 -3.000000 10.000000
      vertex 62.000000 -3.000000 4.000000
    endloop
  endfacet
  facet normal -1.000000 0.000000 0.000000
    outer loop
      vertex 62.000000 -3.000000 4.000000
      vertex 62.000000 -3.000000 10.000000
      vertex 62.000000 3.000000 10.000000
    endloop
  endfacet
  facet normal -1.000000 0.000000 0.000000
    outer loop
      vertex 62.000000 -3.000000 4.000000
      vertex 62.000000 3.000000 10.000000
      vertex 62.000000 3.000000 4.000000
    endloop
  endfacet
  facet normal 0.000000 -1.000000 0.000000
    outer loop
      vertex 62.000000 3.000000 4.000000
      vertex 62.000000 3.000000 10.000000
      vertex 58.000000 3.000000 10.000000
    endloop
  endfacet
  facet normal 0.000000 -1.000000 0.000000
    outer loop
      vertex 62.000000 3.000000 4.000000
      vertex 58.000000 3.000000 10.000000
      vertex 58.000000 3.000000 4.000000
    endloop
  endfacet
  facet normal 1.000000 0.000000 -0.000000
    outer loop
      vertex 58.000000 3.000000 4.000000
      vertex 58.000000 3.000000 10.000000
      vertex 58.000000 -3.000000 10.000000
    endloop
  endfacet
  facet normal 1.000000 0.000000 0.000000
    outer loop
      vertex 58.000000 3.000000 4.000000
      vertex 58.000000 -3.000000 10.000000
      vertex 58.000000 -3.000000 4.000000
    endloop
  endfacet
endsolid antiskating_arm_v2
